<svg xmlns="http://www.w3.org/2000/svg" viewBox="0 0 174.45 120.14"><g id="Layer_2" data-name="Layer 2"><g id="Layer_1-2" data-name="Layer 1"><g id="tomato"><path d="M142.73,74.74l-.48-7.15,1.91,1.35a52,52,0,0,1,2.12-5.71c.57-1.16,2-2,0-3.18a4.2,4.2,0,0,1,.55-1.76,4.35,4.35,0,0,0,.94-2.32L145,57.61l-.46-.5,3.44-3.93-.35-.36-2.19,1.62-.39-.27,2.17-3.93-.68-.25-4.38,5.9-.78-.52c.89-2.92,4.49-4.91,4-8.31l-.93-.37L141,51.28l-.9-.47,2-8.8-.5-.38-5.05,7.08c-1.52-4.23-1.36-7.64,2.69-10.14l-2.08-1.87c-1.51,3.93-2.88,7.5-4.26,11.07l-.58-.23c.78-6.67,1.56-13.33,2.42-20.66L130.21,29c.22-2.78,4.35-3.44,2.72-6.73l-3.63,4.05-.8-.6,3.25-4.93-.5-.71-3.59,3.5c-.58-2.82,3.7-4.27,1.46-7.49L126.88,21l-1-.44c.41-1,.81-2,1.38-3.34l-4.66-2.4c-.14-1.16-.33-2.68-.59-4.82l-1.63-.73a15.34,15.34,0,0,1,.74,3.16c0,.58-.61,1.16-.94,1.73-.33-.47-.89-.91-.94-1.41a36.67,36.67,0,0,1,0-4C103.06,1.64,85.53,4,67.48,3.08l1.8,1.6c-4.16.49-8.13.58-11.91,1.48C50.05,7.9,42.64,9.61,35.62,12.24c-8.38,3.14-16.51,7.19-22.88,13.69-7.84,8-9.84,13.16-11.3,26.6C.66,51.11-.06,50.42,0,49.82,1.45,35.38,9.09,25.2,21.46,18A114.1,114.1,0,0,1,67.14,2.8C76.6,1.78,86.23,1,95.69,1.59c11.18.72,22.24,3.41,31.67,10a22.49,22.49,0,0,1,10.13,19.51c0,.43,0,.87,0,1.31,0,.08.14.16.22.24,2.06-1.49,1.91-1.43.83-3.92-.31-.7.34-1.95.79-2.83,2.41-4.74,5.18-9.33,7.21-14.23.84-2,.52-4.71.07-7-.52-2.61.49-3.8,2.11-4.68,5.92,11.05.75,20.11-5.13,29.55,7.06-.42,13.76-2.89,20,1.3a9.32,9.32,0,0,1-2.26-.25c-5.71-2-11.36-1-17,.34-2,.5-3.08,2-2.44,4.64,1-1.64,1.72-2.91,2.48-4.18l.71.31-.48,2.51.61.59,2.67-2.14,3.76,1.6-.9-2.4.59-.61c.89.77,1.77,1.54,2.52,2.21a28.81,28.81,0,0,1,3.93,0c2,.26,3.86.9,5.82,1.07.54,0,1.37-.91,1.72-1.59a11.58,11.58,0,0,0,.54-3c2.46,3.82.76,7.32-3.13,7.58-2.89.18-5.81-.1-8.71.08-3.34.2-6.67.68-11,1.15l3.43,2.63.28-1.64c9.58.53,20.12,6.86,21.43,17.27a33.57,33.57,0,0,0,1.52,6.39c1.07,3.16,1.53,3.31,4.78,2.53-2.76,3.44-5.92,3.27-7.92-.54a14,14,0,0,1-1.39-4.05c-1.34-8.48-7.46-11.86-14.65-14.11.74,3.31,2.13,6.57,2.06,9.8-.2,8.8-3,17.13-6.74,25-2.95,6.19-6.09,12.65-10.62,17.66-6.6,7.27-14.72,12.82-25,14.44-5.27.84-10.31,3-15.55,4.07-24.09,5-46.24.41-65.9-14.54C18.25,95.69,10,85.81,6.37,72.8,5.71,70.48,5.69,68,5,65.67,4,62.22,2.58,58.88,1.35,55.5l-1-2.88.93-.45,3.34,5.74.59-5.54.91.06.78,6.91,1.83-1L11,69.61l-1.14.31L7.11,60.61l-.73-.17a8.6,8.6,0,0,0-.08,2.47c1.77,7,6.57,11.69,11.88,16.3,3.83,3.33,8.63,2.48,12.63,4.52.37.18,1.43-.74,2-1.31.88-.85,1.62-1.84,2.42-2.77l.8.6-2.62,3.66c3.87.72,7.66,1.22,11.34,2.17,2.17.55,3.78.72,5-1.51.25-.47,1.24-.53,2.57-1l-2.42,2.93.1,1.11c6.14.59,12.26,1.57,18.4,1.67,8.2.12,16.43-.2,24.62-.76,14.19-1,28.28-2.68,41.4-8.7C137.53,78.38,140.28,76.26,142.73,74.74ZM90,114.36l1.87-.16,0,1H72.71c3,3.37,16,2.91,24.1-1.21l-3.63.43-.1-.55,7.36-1.93-.23-.94c-2.78.33-5.6.51-8.33,1.08-.76.16-1.28,1.48-1.91,2.27-2-3.4-5.33-2.24-8.25-2.29-4.67-.08-9.34,0-14.15,0,0-.14,0,.84.06.86,2.63.39,5.27.76,7.92.94,1.14.08,2.63-.79,3.41-.33C82.56,115.67,86.28,114.52,90,114.36Zm61.38-71.07c4.48,2.11,6.21,7.62,12.4,6.53a21.19,21.19,0,0,0-10.89-7.42c-1.62-.44-3.93-.74-4.23,2.4Zm-2-35.51-3.75,12.11C148.66,19.68,151.05,11.81,149.32,7.78ZM115.2,107.56l-.35-.54-7.34,2.33c-1.9.6-1.9.61-1.21,2.9ZM86.79,118.7l-.05-.68H70.17v.68Zm-34.21-9,7.26,1.19.13-.8C54.48,108.46,54.48,108.46,52.58,109.72ZM165.43,52.49l-1.25.38c.92,3,1.85,5.94,2.77,8.9l.68-.17Q166.54,57.06,165.43,52.49Z"/><path d="M127.34,73.66l3-1.09c-4.22,4-9.35,5.73-14.86,6.6s-10.75,2.22-16.15,2.44c-4.93.2-9.57,2.32-14.36,2.07-5.07-.26-10.06-2-15.14-2.61-3.09-.39-6.28.07-9.43,0s-6.41-.31-9.62-.54a60.79,60.79,0,0,1-7.53-.78,15.67,15.67,0,0,1-4.84-2.07c-4.63-2.82-5.7-6.32-3.67-11.26C35.69,64,47,59,49.58,59.83c2.33.73,3.63,5.3,1.84,6.91-2.93,2.64-5.93,5.13-2.3,10.23,1.05-2.37,2.52-4.47,2.79-6.71.2-1.74.23-2.65,2.06-3.3,1.1-.39,1.85-1.8,2.75-2.74l.64.53-1.91,3.1.39.42,3.22-3a23.22,23.22,0,0,0,2.52,2.54c1.82,1.37,1.07,2.55.31,4.17-.34.73.84,2.16,1.33,3.27l.8-.42,2.34-9.29,11.6,3a28.63,28.63,0,0,0,.4,5.56c.22.85,1.55,1.4,2.37,2.09,0-.77,0-1.55-.1-2.31-.17-1.89-.38-3.76-.58-5.65l1.28.47,5.19-1.87-3,3.64.36.41,3.21-2.65c.32,1.6.59,2.93.7,3.47l4.57,4.89.85-.37q-1.38-4.77-2.79-9.56L100.79,64,96.25,68.9l.61.57,3.53-3.85.62.49-4.35,6.27.39.17,8-7.27-2.09.13c1.36-1,2.08-1.53,2.83-2q4.42-3,2.64-8.18a25.69,25.69,0,0,1-1.28-4,26.4,26.4,0,0,1,0-4.2c6-2.4,12.59-1.9,18.9-.41s9.31,4.88,10.48,10.92c1,5-3.06,11.91-7.89,14.38C128.21,72,128,72.61,127.34,73.66ZM113.21,58.81c-.12.47-.23.95-.35,1.42l-1.37-2c-.46,1.14-.88,2.22-1.33,3.32.26.14.8.63,1,.51a14.16,14.16,0,0,1,10.06-1.82c.87.16,2.13-1.73,3.21-2.67-1.16-.36-2.3-.78-3.47-1.06a3.71,3.71,0,0,0-2-.05C117,57.13,115.12,58,113.21,58.81Zm6.24,10.91c-.6-3.78-.73-3.65-7.59-6.82a39.49,39.49,0,0,0,1,4.37C114.08,70.41,116.78,69.72,119.45,69.72Zm-47.2-.8-.58-.54c-.47.38-1.1.67-1.39,1.16-1.22,2.07-2.27,4.25-3.54,6.29a4,4,0,0,1-2.08,1.84c-.75.16-1.7-.54-2.56-.86,3,4.06,4.4,1.61,5.88-1.06C69.28,73.4,70.81,71.19,72.25,68.92ZM121,47.43c-5.48-1.66-8.69.4-9.3,6C113.22,49.66,116.3,47.94,121,47.43ZM41.67,63.36c-2.67,2.78-5.09,5.71-4.21,9.88Zm78.42-14.17c-4.08-.08-6.29,1.7-7.16,5.51Z"/><path d="M48.07,14.09c5.34-1.33,10.64-3,16.05-3.88,3-.5,6.12.26,9.19.41a2.17,2.17,0,0,0,1.18-.4C80.64,6.13,87.3,8.39,93.8,8.61,96.14,8.69,98,9.7,100,10.82c2.5,1.35,7.21,2.48,8.94,4.15,2.79,2.7,3.64,6,2,9.35-1.83,3.61-3.82,7-8,9.16-3.59,1.91-6.76,3.35-10.73,2.75-4.41-.67-5.8-4-3.23-7.66a35.63,35.63,0,0,0,2.83-3.64c.6-1.15,1.34-3.14.82-3.75A4.4,4.4,0,0,0,88.73,20c-4.55,1.66-8.92,3.81-13.41,5.64a53.2,53.2,0,0,1-7.46,2.42c-3.24.78-6.47-3.46-5.62-7.35.37-1.7,1.09-3.32,1.85-5.6-1.24-.16-3.21-.69-3.34-.39a10.09,10.09,0,0,0-1,4.53A68.31,68.31,0,0,0,60.86,26c0,.22-.35.5-.88,1.2l-.83-3.55c-1,1.51-1.78,3.49-3.19,4.37-1.57,1-3.77,1-6.22,1.51-1.32-4.19-2.08-9.25-8.12-9.26-.83,3.09.08,5.76,3.86,7.35,1,.41,1.53,1.92,2.24,2.88-1.87,2.38-3.74,4.77-5.21,6.63l-3.88-2.08c.74-1.28,1.42-2.48,2.4-4.19l-5.22,4a11.72,11.72,0,0,0-2.47-2.17,12,12,0,0,0-3.46-.7,9.14,9.14,0,0,0,1,2.86c1.08,1.36,1.73,3.71,4.55,2.31.46-.24,2.09,1.86,3.42,3.1l1.88-1.41.48.56-6.32,5.49c-.16-.88-.28-1.58-.27-1.5-2.39-.29-4.53-.52-6.67-.83-1.92-.27-3.82-.74-5.75-.87-.5,0-1.56,1-1.48,1.32.17.69.89,1.27,1.44,1.85.11.12.43.1.65.07,3.74-.66,6.48.87,8.44,4.2l2.43-2c-.8,4.16-4.38,5.45-7.49,6.84-3.64,1.63-7.59,3-11.68,0,4.27-.24,9.2,2.58,11.25-3.54L24,53.05l-.73-.33L24.47,48l-.57-.28-2.7,5.52-.95-2.43-1.79,2.67L14.6,52.43l1.22-2.5c-3.74.6-4.15.12-4.11-3.66.09-8.7,4.95-14.88,11.49-19.41,6.25-4.34,13.29-7.57,20.07-11.12,1.41-.74,3.18-.76,4.79-1.12h4.66L53,19.94c3.16-1.12-1.47-5.7,3.09-6.19,2.33-.25,4.62-.92,6.92-1.39l.15.75,4.14-2.54c-2,.24-3.47.31-4.85.58C57.64,12.09,52.86,13.11,48.07,14.09Zm31.14-2.33c-1.47.44-2.85.47-3.06,1-1,2.37-1.64,4.87-2.55,7.79-2.12-.57-2.79,1-2.19,3.46-2.32.58-5-4.39-6.65,1.08,3.22-.09,6,0,9.35-1.12,8.13-2.66,8.38-1.9,9.17-4.84l-6.87,4.06C77.38,19.2,78.19,15.92,79.21,11.76Zm14,7.57c5.75-.76,6.57-.07,6.28-4.23C94.15,14.31,93,15.05,93.18,19.33Z"/><path d="M24.69,59.12c.79-.61,1.58-1.23,2.39-1.82a9.77,9.77,0,0,0,2.72-2.46l4.07-1c.31,3,.62,6,.92,9l-1.28.25c-.41-2-.81-3.91-1.21-5.86l-.33,0c0,1.29,0,2.59,0,3.88s-.22,2.48-.34,3.72h-.82L29.6,57c-3.11,3.64-.6,6.74-.52,9.67-2.23-.75-2.35-1.07-2.5-4.57-.06-1.35.71-3.39-2-3.12Z"/><path d="M24.59,59c.36,2.71.65,5.43,1.12,8.12s-.89,4.7-2.92,6.41q.66-3.09,1.33-6.16l-.58-.18L20.36,74l-1-.51c1-2.61,2.05-5.18,2.86-7.83.46-1.5.33-3.17.77-4.68.21-.73,1.1-1.27,1.69-1.9Z"/><path d="M82.49,38.65l-8.57-3.37,5.65-4.45.41.3L78.64,33Z"/><path d="M41.57,47.68c-3.23-1.79-2.86-3.07,1.76-6.66C45,43.1,45,43.1,41.57,47.68Z"/><path d="M82.78,57.9l-.34-3.57,3.63,1.75L81.53,61.7,81,61.54l.6-2-2.31-3.93L80.2,55Z"/><path d="M54.11,40.69c.11-3.77,2.62-2.69,4.77-3-.26,1.1-.46,1.91-.68,2.86l4.17,1.27-.19.77Z"/><path d="M92.74,60.05l-1.9-3.24,4.25-2.36L92.2,52.4l.29-.54,4.27,1Z"/><path d="M123,38.39l-19.5,3.08-.16-.85,19.48-3.09Z"/><path d="M118.77,35.9l2.49-10.18,1.36.31q-1.19,5.09-2.38,10.15Z"/><path d="M37.34,52.43c.21,2.46.48,4.91.59,7.36,0,.4-.69.82-1.06,1.22-.29-.38-.81-.75-.82-1.15C36,57.41,36,55,36,52.5Z"/><path d="M64.67,62.16,63,59.38l2.51-.72-.85-2.74,3.92,2.59-1.47-1.28C66.39,58.64,65.7,60,64.67,62.16Z"/><path d="M39.6,59.09v-8C41.32,54.7,41.2,58.35,39.6,59.09Z"/><path d="M122.61,34.76l2.8-8C126.48,30,124.77,34.2,122.61,34.76Z"/><path d="M16.78,71.44l3.66-7.73,1.11.53-3.66,7.84Z"/><path d="M23.56,80.2C26.28,73,26.28,73,28.8,72.73l-4.51,7.93Z"/></g></g></g></svg>