<svg xmlns="http://www.w3.org/2000/svg" viewBox="0 0 200.63 125.47"><g id="Layer_2" data-name="Layer 2"><g id="Layer_1-2" data-name="Layer 1"><g id="avo"><path d="M138.13,125.47c-13.27-2.22-26.54-4.41-39.8-6.67-12.25-2.09-24.47-4.36-36.74-6.33-11.93-1.91-24.11-2.24-35.74-6C14,102.56,4.69,95.9,1.6,83.17.41,78.22-.63,72.65.46,67.87c2-8.85,8.87-14.27,17-17.69,10.71-4.51,21.6-8.62,32.36-13,7.87-3.23,15.65-6.7,23.49-10,10.84-4.58,21.37-9.6,31-16.55,8.24-5.93,17.76-8.95,27.93-10.23C142.9-1,152.49,1.83,162,6.05c6.61,2.94,13.41,5.46,19.93,8.56a67,67,0,0,1,9.69,6.27c6.49,4.61,8.1,11.74,8.65,18.9,1.32,17.19-.63,34.09-7.34,50.07-6,14.24-14.75,26.23-30.6,30.75a163.52,163.52,0,0,1-16.09,3.21c-2.6.47-5.26.61-7.89.9C138.25,125,138.19,125.22,138.13,125.47Zm-14.28-98.1-.54-6,.61-.17c.35.44.71.89,1,1.26l1-3.84.92.14v4.36l1.1.16,1.14-6h.52l.75,2.38.86-.2c-.15-1.16-.3-2.32-.5-3.91l3.48-4.28a6,6,0,0,1-1,3,22.52,22.52,0,0,0-.85,3.3c3.63-2.87,3.68-8.88,9.65-6.82.14-.65.35-1.62.46-2.15L146,7.85,146,7.07l-5.53-.7c6.57-1.91,10.78,3.83,16.44,3.18C151.39,3.36,125.66.88,118,5.44l13.11-1c0,.21,0,.41,0,.62l-16.72,3,.16,1h8.11c-3.91.23-5.38,2.81-6.64,6.16l4.26-.62,0,.25-14.88,5.18c0,1.49,0,2.13,0,2.76-3.41.4-5.28,2.14-5.34,5.89l5.28-5.95.73,1.67,11.54-4.53c-4,3.79-10.18,3.68-13.63,8.28L108.52,26,104,31.92c.34.36.69.72,1,1.07,2.79-3.87,6.88-5.37,11.19-7-2.42,2.93-6.83,3.38-8.11,8.43l5.28-3.84c-.08,1.42-.14,2.59-.21,3.76a6.28,6.28,0,0,0,2-2.44c.35-.58.74-1.32,1.29-1.55,2.27-.91,4.61-1.66,6.92-2.46-2.7,3.12-2.15,6.39,1.83,9.44l-2.11-7,.78-.27c.86,1.78,1.71,3.55,2.57,5.32l1.15-.34-1.56-6.75.85-.16L130,34.35l1.46-.66c-.57-1.67-1.15-3.33-1.85-5.36l3.87,2.11-1.3-2.89,2.89-1.25-6.56-2.38Zm11.21,34.08-1-.16c.16-1.2.32-2.39.51-3.77a27.83,27.83,0,0,0-2.91,0c-5.34.62-10.67,1.69-16,1.84-12.36.34-24.64-.14-34.82-8.7-.11-.09-.1-.34-.18-.71L82,49.63c-3.38-8.81,2.84-15.3,5.55-22.66H85.48c2.63-2.37,4.85-4.38,7.67-6.91-6.71-.16-8.44,5.63-12.69,7.59l2-2.5C78.5,26.9,75.07,28.24,71.83,30c-1.38.73-2.16,2.61-3.54,3.31-5.83,2.93-11.78,5.62-17.68,8.4-.16-.32-.32-.64-.47-1L67.51,33,67,31.74c-2.84,1.26-5.64,2.63-8.54,3.73s-5.9,1.63-8.69,2.83C44,40.74,38.47,43.54,32.79,46.05,26.32,48.9,19,49.86,13.66,55.13c-2.23,2.22-4.31,4.61-6.34,7C6,63.72,5.17,65.79,3.63,67c-2.19,1.74-1.84,3.22-.77,5.32s1.38,4.37,2.4,6.38c1.1,2.18,2.19,4.9,4.09,6,2.74,1.61,6.15,2.26,9.36,2.81,2.64.45,5.71-.61,8,.35,6.72,2.77,13.5,1.21,20.2.88,7.68-.39,15.33-2.36,23-2.32,13.21.08,26.41,1.18,39.61,1.88,5.54.29,11.06.94,16.59.93,5.86,0,11.73-.42,17.57-1a110.63,110.63,0,0,0,12-2.15,31.46,31.46,0,0,0,5.89-1.93c1.91-.83,3.66-2,5.53-3,2.78-1.39,6.12-2.13,8.3-4.14C181.65,71.34,188.31,65.83,192,58c2.05-4.41,3.26-9.2,4.85-13.82h-.57l-7.81,8.42c-.49-2.8,1.35-4.5,3.31-5.71,2.7-1.68,3.33-3.83,1.3-6.32,3.38-3.95,3.41-4.24,1-5.64V29.38l1.44.24c-.64-4.85-6.23-9.48-16-12.81l5.24,3.94-.32.52-13-6.52c2.54-2.89,4.52,2.33,7.58.57L165,8.2c1.28,2.58,3,4.45,4.3,6.54a64.16,64.16,0,0,1,3.06,5.77c1.81.52,3.43.56,3.62,1.11a73.28,73.28,0,0,1,2.26,8.31c.18.76-.24,1.74.09,2.37,1.51,2.93,1.12,4.45-2.23,6.89V28.06h-1.27c0,3,.38,6-.1,9s-1.67,6-5.17,8l2-3.91c-5.2,5.17-11.31,8.3-18,10.69C150,53,145.86,53.88,145,58.63a5.7,5.7,0,0,1-1,0l1.57-4.44c-1.45,1.2-2.39,1.7-2.89,2.47A18.8,18.8,0,0,0,141.26,60l-.66-.21c.17-1.15.33-2.3.55-3.75l-5.05.83ZM28.13,101.06l1.85,1.2.29-.38L27.5,97.53l-.66.32c.07.79.13,1.57.19,2.35l-.88.46L18.57,90.33c.58,6.75,6,10.15,10.9,14.41l-4.17-.33-.12.75,14.89,3.48C36,106.05,30.5,106.3,28.13,101.06Zm19.32,1.68-.8.81c.74,1.28,1.47,2.57,2.31,4l17.91,2.22c0-.28.06-.56.1-.83-3.45-.39-6.91-.72-10.35-1.19-1.91-.25-4-.37-5.61-1.24C49.56,105.78,48.62,104.05,47.45,102.74Zm33.09,5.74c-.08.49-.17,1-.26,1.45l17.33,3.16c.06-.34.12-.69.19-1Zm9.14-3.07c1.5,3.64,3.88,5.64,7.83,5.46C95.71,107.93,94.49,104.34,89.68,105.41Zm5.15,8.39c0,.32-.09.63-.13.94L107,117.19C103.24,113.57,99,113.78,94.83,113.8Zm43.81,4,0,.73h-3.81c3.7.75,7.36,1,10.56-1.19H132.69v.46Zm-.26-2.59-8.24-.4v.55h11v-3.41l-1-.41C139.62,112.56,139.14,113.6,138.38,115.2Zm-116-14.42a43.16,43.16,0,0,1-2.57-3.51,36,36,0,0,1-2.17-4.35c-.48-1.09-.79-2.25-1.18-3.39l-.95.46A14.35,14.35,0,0,0,22.35,100.78Zm77.78-83.24c-3.48.67-7.11,5.75-5.87,7.74a42.85,42.85,0,0,0,3-3.33C98.39,20.47,99.3,18.84,100.13,17.54Zm23.44,21.59L119,31C119.11,35.12,120.1,37.77,123.57,39.13ZM104.24,89.56l-.32.68,14.8.89,0-.6Zm-37.12,18,.15-1.08-8.08-.77c0,.38-.07.76-.1,1.14Z"/><path d="M180.29,60.74a42.74,42.74,0,0,0,3.87-3.07c1.42-1.38,2.65-3,4-4.46l.63.53-1.63,2.63.62.55,2.53-3.48a18,18,0,0,1,2.78-3.32c-3.32,7.64-8.54,13.81-14.53,19.45-6.69,6.3-14.13,11.5-23.19,13.29-3.7.73-8.15,1.07-11.87-1.72,7.79,3,14.27-.45,21.28-3.89l-2.09-.54.08.1,3.48-2.29c.4-.26,1-.46,1.14-.81,1.49-4.82,6.36-6,9.78-8.44,2-1.41,3-2.51,3.27-4.63Z"/><path d="M10.49,65.52c-2.46,3.22-2,4.62,2.81,7.58l-2.93,5.29L20,80.88c-2.35,2.49-5.25,2.84-8.26,1.67-4.73-1.85-2-6-2.61-9.14-7-2.85-3-10,3.41-13.34l-2.95,3.7,3.6-1.84-1.25,2.21Z"/><path d="M29.71,84.77l4.16-4,.56.47L32.64,83.5l.41.86,4.58-1.82-.8,1.79.63.86,4.26-3L41.88,84a19,19,0,0,1,4-.95,8.32,8.32,0,0,1,4.13,1.22H44.41l0,.47H62.07l0,.92H30.29Z"/><path d="M90.24,82.66c6.91.56,13.37,1.17,19.84,1.59,8.2.54,16.41,1.07,24.63,1.28,3.11.08,6.23-.76,9.81-1.24C139.3,86.92,97.25,85.62,90.24,82.66Z"/><path d="M180.41,60.64,175,64.29l3.89-8.51c.53.92.75,1.3,1,1.7l8.44-10.78.65.49Q184.6,54,180.29,60.75Z"/><path d="M176,59.84c-1.21,2.37-2.41,4.75-3.62,7.13l-.67-.2c0-.62-.07-1.24-.09-1.55l-5.38,5.47-.76-.61c2-2.7,2.25-6.56,6.06-8,.17-.06.62.64.93,1l2.88-3.8Z"/><path d="M101.46,63.28,82.14,60.84l4.09-4.63c-.27,1.75-.42,2.65-.56,3.55l4-.6-.3.66,12,2.89Z"/><path d="M180.3,48.53q.9-2.22,1.77-4.42c2.39,4.15-4.67,13.73-9.78,13.84,2.27-2.69,4.72-5.59,7.16-8.5Z"/><path d="M92.65,75.28c2.57-.49,5.41-.46,7.64-1.61,3.73-1.92,7,.08,10.47.23a22.6,22.6,0,0,1,4.92.25c-4,.89-7.84.28-11.86-.1-3.54-.34-7.29,1.45-10.95,2.29C92.79,76,92.72,75.64,92.65,75.28Z"/><path d="M180.3,48.53l-.85.92a30.67,30.67,0,0,1-14.89,8.48c1.79-2.15,3.2-4.28,7-3.74,1.66.24,3.74-2.73,5.71-4.12A20.48,20.48,0,0,1,180.3,48.53Z"/><path d="M10.49,65.52l1.43-1.38,1.77.65-1.75,2.52c.65,2.93,5.67,2.69,4.39,6.86a64.22,64.22,0,0,1-5.94-5.34C9.85,68.23,10.43,66.65,10.49,65.52Z"/><path d="M155.18,73.44c.06-2,3.76-3.67,0-5.75L159,66.61c-.56,2.12-1,3.72-1.67,6.26l4.32-6.6C161.46,70.68,159.82,72.34,155.18,73.44Z"/><path d="M57.78,50c.8-2.53,2.45-3.15,4.9-3.73,1.66-.4,2.72-3.28,4.05-5l.72.48c-1,1.89-1.72,4.22-3.25,5.54S60.14,49,57.78,50Z"/><path d="M128.81,76.65c1.23-2.32,2-4.89,5.77-3.93,2,.52,4.48-.55,6.75-.88a6.62,6.62,0,0,1,2.39,0C139.09,74.47,132.84,72,128.81,76.65Z"/><path d="M36.31,59.43l11.51-7.17.62,1.06c-4.67,1-7,6.21-11.84,7C36.5,60,36.4,59.73,36.31,59.43Z"/><path d="M173.68,46.06c-1.65,4.86-8,8.34-10.35,5.56C168.1,52.08,170.89,49.06,173.68,46.06Z"/><path d="M69.69,46.7c-.06-4,2-7,3.92-10l.79.37Z"/><path d="M60.1,63c3.38,4.3,7-.18,10.27,1.14-2.87.67-5.71,1.5-8.61,1.93-.7.1-1.67-1-2.33-1.73C59.29,64.17,59.94,63.29,60.1,63Z"/><path d="M162.66,76.71l-9.06,3.44-.43-1.65,9.57-1.68Z"/><path d="M167.1,64.69l-4.39,7.13-1-.6,4.38-7.15Z"/><path d="M183.8,24.25c2.95,1.13,4,3.66,2.8,7.19C185.59,28.86,184.7,26.56,183.8,24.25Z"/><path d="M106.81,78.21c-.21,2.26-2.06,2.47-7.19,0Z"/></g></g></g></svg>