<svg xmlns="http://www.w3.org/2000/svg" viewBox="0 0 1074.27 477.11"><defs><style>.cls-1{fill:#fff;}</style></defs><g id="Layer_2" data-name="Layer 2"><g id="Layer_1-2" data-name="Layer 1"><path class="cls-1" d="M170.92,477c0-5.93.08-11.52,0-17.11-.35-20.61-.79-41.21-1.13-61.81-.17-10.87,3.53-20.5,12.12-27,18.09-13.78,28.46-32.18,33.76-53.71,8-32.61,5.65-64.43-9.26-94.8-6.37-13-15.27-24-28.36-31-16-8.53-34.9-6.38-49,5.39-16.34,13.65-25.19,31.71-29.89,51.93-7.09,30.56-5,60.5,8,89.3,5.6,12.45,13.54,23.17,24.78,31.36,9.74,7.09,14.35,17.11,14.23,29.11-.24,25.6-.67,51.19-1,76.79a14.48,14.48,0,0,1-.24,1.73c-13.52-1.39-26.78-3.72-39.32-8.65C47.32,445.57,12.18,403.44,2,341.58c-5.64-34.2.94-66.76,16.81-97.52q59.1-114.51,118-229.12c3.54-6.89,7.93-12.4,15.74-14.29,10.16-2.45,19.57,2.09,24.82,12.08C183.8,25,190.09,37.31,196.43,49.61q50.1,97.28,100.22,194.53c12.91,25,19.86,51.5,18.43,79.64-2.8,54.89-26.91,98-72.87,128.59-19.11,12.71-40.27,20.16-62.84,23.79C176.91,476.55,174.41,476.64,170.92,477Z"/><path class="cls-1" d="M202.2,278.87c-.38,17.48-1.35,29.89-5.32,41.87a37,37,0,0,1-2.59,6.19,8,8,0,0,1-10.62,3.49,8.11,8.11,0,0,1-4.26-10.35c8.41-23,7.68-46.24,1.62-69.54a45,45,0,0,0-10.74-19.87c-3.52-3.74-3.26-8.68.36-12,3.37-3.07,8.18-2.79,11.7.86,9.24,9.58,14.14,21.43,16.57,34.2C200.79,263.63,201.55,273.73,202.2,278.87Z"/><path class="cls-1" d="M525.77,260c7.33,3.35,11.74,8.23,11.86,16.21.1,6.94-2.76,12.3-9,15.07a37,37,0,0,1-13.25,3.48c-13.7.44-27.43.16-41.4.16V228.11a3.54,3.54,0,0,1,1.19-.39c13.6.17,27.2.21,40.79.71a24,24,0,0,1,9.57,2.86c10.93,5.57,12.14,19.26,2.56,27C527.47,258.72,526.86,259.14,525.77,260Zm-33.11,20.78c7,0,13.82.26,20.61-.11,3.12-.18,5.07-2.63,5.17-5.93.1-3.08-1.38-5.79-4.4-6.12-7.08-.76-14.23-.89-21.38-1.28Zm0-38.74v12.77c6-.3,11.81-.37,17.56-1,3.19-.34,4.9-2.64,4.86-6s-2-5.45-4.88-5.65C504.45,241.7,498.64,242,492.67,242Z"/><path class="cls-1" d="M1074.27,295c-4.85,0-9.34.16-13.82-.1a5.85,5.85,0,0,1-3.5-2.2c-8.28-9.83-16.45-19.76-24.66-29.65-.83-1-1.72-2-3.19-3.63V294.8h-18.46V227.69c4.82,0,9.53-.15,14.22.11,1.09.06,2.31,1.31,3.13,2.29,7.85,9.38,15.63,18.82,23.43,28.24,1.18,1.43,2.38,2.84,4.32,5.15V227.89h18.53Z"/><path class="cls-1" d="M907.14,261.44c.38-20.95,17.73-36.41,39.6-35,17.34,1.1,30.3,10.69,34.26,25.36,6.22,23-9.9,43.78-34.66,44.62-18,.61-33-9.34-37.44-25.06A99,99,0,0,1,907.14,261.44Zm19.62-.16c0,11.16,7.5,19.28,18,19.36S963,272.57,963,261.5s-7.51-19.23-18-19.32S926.81,250.13,926.76,261.28Z"/><path class="cls-1" d="M882.91,261.26c0,20.26-15.69,35.11-37.22,35.17s-37.46-14.79-37.56-34.92,15.8-35.06,37.31-35.15S882.87,241.08,882.91,261.26Zm-19.24.63c.29-11.15-7-19.34-17.61-19.69-10.34-.34-18.33,7.52-18.64,18.33-.33,11.37,7,19.74,17.65,20.1C855.51,281,863.39,273.05,863.67,261.89Z"/><path class="cls-1" d="M741.81,294.83h-19V227.68c5.14,0,10.09-.1,15,0,8.1.19,16.32-.26,24.27,1,14.32,2.24,21.87,12.24,21.1,26.26-.65,11.85-10.26,20.92-23.88,22-5.67.46-11.41.08-17.5.08ZM741.9,262c5.1,0,9.84.37,14.5-.1s7.38-4,7.6-8.73-2.06-8.86-6.5-9.62c-5.06-.86-10.28-.8-15.6-1.16Z"/><path class="cls-1" d="M637.56,289l5.86-13.11c6.07,1.84,11.75,4,17.63,5.17a29.66,29.66,0,0,0,11.44-.46c1.68-.34,4-2.73,4.07-4.3s-2-4.06-3.64-4.67c-4.89-1.8-10-2.83-15.09-4.23a69,69,0,0,1-7.47-2.38c-16.18-6.58-13.59-25-4.46-32,5.89-4.55,12.69-6.17,19.93-6.47,9.36-.38,18.34,1,27.08,5.76-2,4.74-3.85,9.28-5.56,13.42-5.29-1.48-10.22-3.26-15.3-4.13a22.25,22.25,0,0,0-9.93.65,7.14,7.14,0,0,0-4.2,4.85c-.2,1.32,2.14,3.84,3.85,4.48,4.41,1.63,9.11,2.49,13.68,3.72a68.57,68.57,0,0,1,7.86,2.4c6.31,2.58,11.26,6.54,12.17,13.86,1,8.16-1.76,14.74-8.61,19.4-6.12,4.17-13.1,5.44-20.3,5.45C656.48,296.38,646.75,294.65,637.56,289Z"/><path class="cls-1" d="M388.42,227.84H448v14.92H427.86v52.08H408.8V242.92H388.42Z"/><path class="cls-1" d="M566,227.86h18.64v52h31.88v15H566Z"/></g></g></svg>