<svg xmlns="http://www.w3.org/2000/svg" viewBox="0 0 315.26 477.11"><g id="Layer_2" data-name="Layer 2"><g id="Layer_1-2" data-name="Layer 1"><path d="M170.92,477c0-5.93.08-11.52,0-17.11-.35-20.61-.79-41.21-1.13-61.81-.17-10.87,3.53-20.5,12.12-27,18.09-13.78,28.46-32.18,33.76-53.71,8-32.61,5.65-64.43-9.26-94.8-6.37-13-15.27-24-28.36-31-16-8.53-34.9-6.38-49,5.39-16.34,13.65-25.19,31.71-29.89,51.93-7.09,30.56-5,60.5,8,89.3,5.6,12.45,13.54,23.17,24.78,31.36,9.74,7.09,14.35,17.11,14.23,29.11-.24,25.6-.67,51.19-1,76.79a14.48,14.48,0,0,1-.24,1.73c-13.52-1.39-26.78-3.72-39.32-8.65C47.32,445.57,12.18,403.44,2,341.58c-5.64-34.2.94-66.76,16.81-97.52q59.1-114.51,118-229.12c3.54-6.89,7.93-12.4,15.74-14.29,10.16-2.45,19.57,2.09,24.82,12.08C183.8,25,190.09,37.31,196.43,49.61q50.1,97.28,100.22,194.53c12.91,25,19.86,51.5,18.43,79.64-2.8,54.89-26.91,98-72.87,128.59-19.11,12.71-40.27,20.16-62.84,23.79C176.91,476.55,174.41,476.64,170.92,477Z"/><path d="M202.2,278.87c-.38,17.48-1.35,29.89-5.32,41.87a37,37,0,0,1-2.59,6.19,8,8,0,0,1-10.62,3.49,8.11,8.11,0,0,1-4.26-10.35c8.41-23,7.68-46.24,1.62-69.54a45,45,0,0,0-10.74-19.87c-3.52-3.74-3.26-8.68.36-12,3.37-3.07,8.18-2.79,11.7.86,9.24,9.58,14.14,21.43,16.57,34.2C200.79,263.63,201.55,273.73,202.2,278.87Z"/></g></g></svg>